<svg width="143" height="131" viewBox="0 0 143 131" fill="none" xmlns="http://www.w3.org/2000/svg">
<g clip-path="url(#clip0_890_163)">
<path d="M0.881714 130.849V118.201H54.3482V86.4408H0.881714V73.7842H66.9957V130.849H0.881714Z" fill="white"/>
<path d="M0.881714 95.9936H44.7873V108.641H0.881714V95.9936Z" fill="white"/>
<path d="M9.93494 0.823226H22.5733V51.5776H54.3519V9.87281H111.416V42.0166H98.7688V22.5294H66.9994V64.2251H9.94407L9.93494 0.823226Z" fill="white"/>
<path d="M32.1388 0.823194H44.7772L44.7863 42.0166H32.1479L32.1388 0.823194Z" fill="white"/>
<path d="M142.67 130.849V118.201H89.2033V86.4408H142.67V73.7842H76.5558V130.849H142.67Z" fill="white"/>
<path d="M142.671 95.9936H98.7651V108.641H142.671V95.9936Z" fill="white"/>
<path d="M76.5548 32.0865H89.2023V51.5737H120.981V0.828446H133.619V64.2212H76.5548V32.0865Z" fill="white"/>
</g>
<defs>
<clipPath id="clip0_890_163">
<rect width="143" height="131" fill="white"/>
</clipPath>
</defs>
</svg>
