<svg width="440" height="210" viewBox="0 0 440 210" fill="none" xmlns="http://www.w3.org/2000/svg">
<rect x="0.5" y="80.5" width="119" height="39" stroke="#F2F2F2"/>
<text fill="#F2F2F2" xml:space="preserve" style="white-space: pre" font-family="Jost" font-size="12" letter-spacing="0em"><tspan x="49.2832" y="104.17">user</tspan></text>
<rect x="160.5" y="80.5" width="119" height="39" stroke="#F2F2F2"/>
<text fill="#F2F2F2" xml:space="preserve" style="white-space: pre" font-family="Jost" font-size="12" letter-spacing="0em"><tspan x="198.045" y="104.17">classifier</tspan></text>
<rect x="320.5" y="80.5" width="119" height="39" stroke="#F2F2F2"/>
<text fill="#F2F2F2" xml:space="preserve" style="white-space: pre" font-family="Jost" font-size="12" letter-spacing="0em"><tspan x="355.531" y="104.17">generator</tspan></text>
<rect x="240.5" y="0.5" width="119" height="39" stroke="#F2F2F2"/>
<text fill="#F2F2F2" xml:space="preserve" style="white-space: pre" font-family="Jost" font-size="12" letter-spacing="0em"><tspan x="268.33" y="24.17">training data</tspan></text>
<path d="M160.354 100.354C160.549 100.158 160.549 99.8417 160.354 99.6464L157.172 96.4645C156.976 96.2692 156.66 96.2692 156.464 96.4645C156.269 96.6597 156.269 96.9763 156.464 97.1716L159.293 100L156.464 102.828C156.269 103.024 156.269 103.34 156.464 103.536C156.66 103.731 156.976 103.731 157.172 103.536L160.354 100.354ZM120 100.5H160V99.5H120V100.5Z" fill="#F2F2F2"/>
<path d="M380 180V180.5H380.5V180H380ZM60 180H59.5V180.5H60V180ZM60.3536 119.646C60.1583 119.451 59.8417 119.451 59.6464 119.646L56.4645 122.828C56.2692 123.024 56.2692 123.34 56.4645 123.536C56.6597 123.731 56.9763 123.731 57.1716 123.536L60 120.707L62.8284 123.536C63.0237 123.731 63.3403 123.731 63.5355 123.536C63.7308 123.34 63.7308 123.024 63.5355 122.828L60.3536 119.646ZM379.5 120V180H380.5V120H379.5ZM380 179.5H60V180.5H380V179.5ZM60.5 180V120H59.5V180H60.5Z" fill="#F2F2F2"/>
<path d="M220 20V19.5H219.5V20H220ZM219.646 80.3536C219.842 80.5488 220.158 80.5488 220.354 80.3536L223.536 77.1716C223.731 76.9763 223.731 76.6597 223.536 76.4645C223.34 76.2692 223.024 76.2692 222.828 76.4645L220 79.2929L217.172 76.4645C216.976 76.2692 216.66 76.2692 216.464 76.4645C216.269 76.6597 216.269 76.9763 216.464 77.1716L219.646 80.3536ZM220.5 80V79H219.5V80H220.5ZM220.5 77V75H219.5V77H220.5ZM220.5 73V71H219.5V73H220.5ZM220.5 69V67H219.5V69H220.5ZM220.5 65V63H219.5V65H220.5ZM220.5 61V59H219.5V61H220.5ZM220.5 57V55H219.5V57H220.5ZM220.5 53L220.5 51H219.5V53H220.5ZM220.5 49V47H219.5V49H220.5ZM220.5 45V43H219.5V45H220.5ZM220.5 41V39H219.5V41H220.5ZM220.5 37V35H219.5V37H220.5ZM220.5 33V31H219.5V33H220.5ZM220.5 29V27H219.5V29H220.5ZM220.5 25V23H219.5V25H220.5ZM220.5 21V20H219.5V21H220.5ZM220 20.5H221V19.5H220V20.5ZM223 20.5H225V19.5H223V20.5ZM227 20.5H229V19.5H227V20.5ZM231 20.5H233V19.5H231V20.5ZM235 20.5H237V19.5H235V20.5ZM239 20.5H240V19.5H239V20.5Z" fill="#F2F2F2"/>
<path d="M300.107 39.6464C299.911 39.4512 299.595 39.4512 299.399 39.6464L296.218 42.8284C296.022 43.0237 296.022 43.3403 296.218 43.5355C296.413 43.7308 296.729 43.7308 296.925 43.5355L299.753 40.7071L302.581 43.5355C302.777 43.7308 303.093 43.7308 303.289 43.5355C303.484 43.3403 303.484 43.0237 303.289 42.8284L300.107 39.6464ZM300.253 100L300.253 40L299.253 40L299.253 100L300.253 100Z" fill="#F2F2F2"/>
<path d="M320.354 100.354C320.549 100.158 320.549 99.8417 320.354 99.6465L317.172 96.4645C316.976 96.2692 316.66 96.2692 316.464 96.4645C316.269 96.6597 316.269 96.9763 316.464 97.1716L319.293 100L316.464 102.828C316.269 103.024 316.269 103.34 316.464 103.536C316.66 103.731 316.976 103.731 317.172 103.536L320.354 100.354ZM280 100.5L320 100.5L320 99.5L280 99.5L280 100.5Z" fill="#F2F2F2"/>
<text fill="#666666" xml:space="preserve" style="white-space: pre" font-family="Jost" font-size="12" letter-spacing="0em"><tspan x="140" y="144.17">input</tspan></text>
<text fill="#666666" xml:space="preserve" style="white-space: pre" font-family="Jost" font-size="12" letter-spacing="0em"><tspan x="319.434" y="64.17">append output</tspan></text>
<text fill="#666666" xml:space="preserve" style="white-space: pre" font-family="Jost" font-size="12" letter-spacing="0em"><tspan x="220" y="204.17">response</tspan></text>
<text fill="#666666" xml:space="preserve" style="white-space: pre" font-family="Jost" font-size="12" letter-spacing="0em"><tspan x="300" y="144.17">instruction</tspan></text>
</svg>
